<svg xmlns="http://www.w3.org/2000/svg" xmlns:xlink="http://www.w3.org/1999/xlink" id="Layer_1" x="0" y="0" version="1.1" viewBox="0 0 64 78.4" xml:space="preserve" style="enable-background:new 0 0 64 78.4"><style type="text/css">.st0,.st1{fill:#242e4c}.st1{opacity:.4;enable-background:new}</style><path id="Rectangle_14" d="M10,0h1.2v11.2H0V10C0,4.5,4.5,0,10,0z" class="st0"/><rect id="Rectangle_15" width="11.2" height="25.6" x="35.2" y="17.6" class="st0"/><rect id="Rectangle_16" width="11.2" height="25.6" x="17.6" y="35.2" class="st1"/><path id="Rectangle_17" d="M52.8,35.2H64v18.6c0,3.9-3.1,7-7,7h-4.2V35.2z" class="st0"/><rect id="Rectangle_18" width="11.2" height="25.6" y="52.8" class="st0"/><path id="Rectangle_19" d="M52.8,0H57c3.9,0,7,3.1,7,7l0,0l0,0v4.2H52.8V0z" class="st0"/><rect id="Rectangle_20" width="11.2" height="11.2" x="52.8" y="17.6" class="st1"/><rect id="Rectangle_21" width="11.2" height="11.2" y="35.2" class="st0"/><rect id="Rectangle_22" width="11.2" height="11.2" x="35.2" y="49.6" class="st0"/><path id="Rectangle_23" d="M17.6,67.2h11.2v1.2c0,5.5-4.5,10-10,10h-1.2V67.2z" class="st0"/><rect id="Rectangle_24" width="28.8" height="11.2" x="17.6" class="st1"/><rect id="Rectangle_25" width="28.8" height="11.2" y="17.6" class="st0"/></svg>